<svg height="73" viewBox="0 0 73 73" width="73" xmlns="http://www.w3.org/2000/svg"><g fill="none"><rect fill="#fff" height="71" rx="14" stroke="#363644" stroke-width="2" width="71" x="1" y="1"/><g transform="translate(17 19)"><path d="m19 9h1v16h-1z" fill="#1c1c2c"/><path d="m35 26h-1.3478261v-7.6153846h-28.30434781v7.6153846h-1.34782609v-9h31z" fill="#1c1c2c"/><g fill="#ff7163"><path d="m4.5 35c-2.48528571 0-4.5-2.0147143-4.5-4.5s2.01471429-4.5 4.5-4.5 4.5 2.0147143 4.5 4.5-2.01471429 4.5-4.5 4.5z"/><path d="m34.5 35c-2.4852857 0-4.5-2.0147143-4.5-4.5s2.0147143-4.5 4.5-4.5 4.5 2.0147143 4.5 4.5-2.0147143 4.5-4.5 4.5z"/><path d="m19.5 35c-2.4852857 0-4.5-2.0147143-4.5-4.5s2.0147143-4.5 4.5-4.5 4.5 2.0147143 4.5 4.5-2.0147143 4.5-4.5 4.5z"/></g><path d="m15 0h9v9h-9z" fill="#36f"/></g></g></svg>